<?xml version="1.0" encoding="utf-8"?>
<!-- Generator: Adobe Illustrator 15.0.0, SVG Export Plug-In . SVG Version: 6.00 Build 0)  -->
<!DOCTYPE svg PUBLIC "-//W3C//DTD SVG 1.1//EN" "http://www.w3.org/Graphics/SVG/1.1/DTD/svg11.dtd">
<svg version="1.1" id="Layer_1" xmlns="http://www.w3.org/2000/svg" xmlns:xlink="http://www.w3.org/1999/xlink" x="0px" y="0px"
	 width="560px" height="560px" viewBox="0 0 560 560" enable-background="new 0 0 560 560" xml:space="preserve">
<path d="M354.928,52.05C340.054,25.188,311.434,7,278.554,7c-32.881,0-61.5,18.188-76.374,45.05
	c-7.719,13.94-9.866,27.08-10.235,27.08s-0.669,12.917-0.669,28.852v159.407c0,48.202,39.076,87.277,87.277,87.277
	c48.202,0,87.277-39.075,87.277-87.277V107.981c0-15.935-0.3-28.852-0.668-28.852C364.792,79.13,362.646,65.991,354.928,52.05z"/>
<path d="M420.677,276.747c-4.28,31.077-26.625,124.402-140.677,126.361c-114.052-1.959-136.396-95.284-140.677-126.361
	c-0.754-5.472-5.467-9.948-10.99-9.948H96.401c-5.523,0-10.028,4.48-9.756,9.997c5.885,119.689,116.747,166.121,150.321,177.472
	c5.232,1.77,9.555,7.421,9.555,12.943v77.37c0,5.522,4.477,10,10,10h23.188h0.581h23.188c5.522,0,10-4.478,10-10v-77.37
	c0-5.522,4.323-11.174,9.555-12.943c33.575-11.352,144.436-57.784,150.321-177.472c0.271-5.516-4.234-9.997-9.757-9.997h-31.931
	C426.145,266.799,421.431,271.275,420.677,276.747z"/>
</svg>
