<?xml version="1.0" standalone="no"?>
<!DOCTYPE svg PUBLIC "-//W3C//DTD SVG 20010904//EN"
 "http://www.w3.org/TR/2001/REC-SVG-20010904/DTD/svg10.dtd">
<svg version="1.0" xmlns="http://www.w3.org/2000/svg"
 width="472.000000pt" height="160.000000pt" viewBox="0 0 472.000000 160.000000"
 preserveAspectRatio="xMidYMid meet">

<g transform="translate(0.000000,160.000000) scale(0.100000,-0.100000)"
fill="#000000" stroke="none">
<path d="M1184 997 c-2 -7 -3 -102 -2 -212 l3 -200 140 -3 c80 -2 156 1 177 8
70 20 124 116 100 179 -5 14 -5 41 1 67 9 36 7 49 -14 90 -38 75 -64 84 -247
84 -115 0 -154 -3 -158 -13z m346 -54 c20 -19 33 -41 37 -67 l6 -40 -35 22
c-32 20 -49 22 -177 22 l-141 0 0 45 0 45 140 0 c138 0 140 0 170 -27z m-12
-119 c12 -8 22 -22 22 -30 0 -30 -63 -44 -195 -44 l-125 0 0 45 0 45 138 0
c108 0 142 -3 160 -16z m52 -94 c0 -37 -30 -81 -65 -96 -24 -10 -74 -14 -160
-14 l-125 0 0 44 0 44 143 4 c114 2 148 6 168 20 32 22 39 22 39 -2z"/>
<path d="M1670 795 l0 -215 208 2 207 3 0 115 0 115 -92 3 -92 3 -3 92 -3 92
-112 3 -113 3 0 -216z m190 100 l0 -75 -80 0 -80 0 0 75 0 75 80 0 80 0 0 -75z
m0 -195 l0 -81 -77 3 -78 3 -3 78 -3 77 81 0 80 0 0 -80z m190 0 l0 -80 -75 0
-75 0 0 80 0 80 75 0 75 0 0 -80z"/>
<path d="M2152 798 l3 -213 125 0 c115 0 130 2 175 26 120 61 151 225 62 326
-53 60 -93 73 -240 73 l-127 0 2 -212z m58 152 c-11 -11 -22 -20 -25 -20 -3 0
-5 9 -5 20 0 15 7 20 25 20 l25 0 -20 -20z m130 -150 l0 -170 -25 0 c-29 0
-90 51 -112 93 -20 39 -20 115 0 153 26 49 82 91 125 93 9 1 12 -39 12 -169z
m104 147 c73 -41 106 -146 70 -222 -20 -42 -50 -70 -97 -90 l-37 -15 0 175 c0
133 3 175 13 175 6 0 30 -10 51 -23z m-228 -308 c19 -21 19 -21 -6 -18 -14 2
-26 12 -28 22 -5 23 11 22 34 -4z"/>
<path d="M2632 798 l3 -213 203 -3 c241 -3 245 -1 162 83 l-52 53 30 17 c38
23 72 82 72 126 0 47 -29 99 -69 126 -32 22 -44 23 -193 23 l-158 0 2 -212z
m323 160 c50 -23 72 -109 39 -156 -8 -12 -29 -29 -46 -38 l-31 -16 -111 111
-111 111 117 0 c69 0 128 -5 143 -12z m-105 -203 c0 -3 -40 -5 -90 -5 l-90 0
0 98 1 97 89 -93 c50 -50 90 -94 90 -97z m90 -90 l44 -45 -157 0 -157 0 0 45
0 45 113 0 113 0 44 -45z"/>
<path d="M3182 990 c-65 -40 -73 -66 -70 -245 l3 -160 145 -3 c136 -2 149 -1
189 20 72 38 81 66 81 250 l0 158 -157 0 c-140 0 -162 -2 -191 -20z m308 -85
l0 -65 -32 20 c-29 17 -51 20 -170 20 -76 0 -138 3 -138 8 1 4 7 18 14 31 24
43 52 50 194 51 l132 0 0 -65z m-31 -96 c54 -54 46 -59 -94 -59 -92 0 -134 4
-155 15 -27 14 -60 51 -60 67 0 5 63 8 139 8 l139 0 31 -31z m-272 -76 c22
-15 55 -19 165 -21 76 -2 138 -7 138 -11 0 -15 -33 -52 -60 -66 -21 -11 -63
-15 -155 -15 l-125 0 0 65 c0 36 2 65 5 65 3 0 18 -8 32 -17z"/>
</g>
</svg>
