<?xml version="1.0" standalone="no"?>
<!DOCTYPE svg PUBLIC "-//W3C//DTD SVG 20010904//EN"
 "http://www.w3.org/TR/2001/REC-SVG-20010904/DTD/svg10.dtd">
<svg version="1.0" xmlns="http://www.w3.org/2000/svg"
 width="944.000000pt" height="320.000000pt" viewBox="0 0 944.000000 320.000000"
 preserveAspectRatio="xMidYMid meet">

<g transform="translate(0.000000,320.000000) scale(0.100000,-0.100000)"
fill="#000000" stroke="none">
<path d="M3467 1856 c-49 -18 -76 -43 -93 -83 -31 -73 -5 -147 64 -182 21 -11
76 -29 123 -40 46 -12 95 -30 109 -40 55 -40 48 -113 -14 -146 -53 -29 -162
-17 -228 24 l-51 32 -21 -21 c-21 -21 -21 -21 -1 -37 43 -33 129 -66 189 -70
84 -7 142 11 188 57 35 35 38 42 38 94 0 96 -37 128 -204 173 -107 28 -136 50
-136 104 0 29 7 43 31 63 44 37 133 37 208 -1 52 -25 54 -26 68 -8 19 27 13
36 -41 64 -58 30 -172 39 -229 17z"/>
<path d="M4390 1853 c-64 -23 -142 -105 -165 -172 -23 -69 -17 -179 13 -237
76 -148 264 -197 430 -113 l67 34 3 118 3 117 -121 0 -120 0 0 -30 0 -30 90 0
90 0 0 -70 0 -71 -52 -24 c-68 -32 -171 -34 -226 -6 -81 42 -122 113 -122 211
0 138 87 230 218 230 64 0 113 -13 153 -41 26 -18 27 -18 48 5 25 26 22 30
-49 67 -59 30 -193 36 -260 12z"/>
<path d="M6381 1828 c-10 -24 -62 -142 -116 -263 -53 -121 -101 -230 -106
-243 -9 -23 -8 -23 57 -20 l66 3 22 53 c12 29 27 57 32 62 7 7 56 10 125 8
l114 -3 30 -62 29 -63 63 0 c35 0 63 3 63 7 0 4 -55 133 -122 285 l-122 278
-58 0 -59 0 -18 -42z m116 -205 c18 -42 33 -80 33 -85 0 -4 -34 -8 -76 -8 -62
0 -75 3 -71 14 32 83 70 166 75 162 3 -4 20 -40 39 -83z"/>
<path d="M2080 1581 l0 -281 128 0 c195 0 279 35 347 145 27 44 30 56 30 134
0 97 -18 142 -77 197 -71 68 -107 78 -275 82 l-153 4 0 -281z m315 200 c142
-66 170 -269 51 -368 -51 -41 -97 -53 -210 -53 l-96 0 0 220 0 220 108 0 c83
0 116 -5 147 -19z"/>
<path d="M2770 1580 l0 -280 215 0 215 0 0 30 0 30 -180 0 -180 0 0 95 0 94
158 3 157 3 3 28 3 27 -160 0 -161 0 0 100 0 100 180 0 180 0 0 25 0 25 -215
0 -215 0 0 -280z"/>
<path d="M3960 1580 l0 -280 30 0 30 0 0 280 0 280 -30 0 -30 0 0 -280z"/>
<path d="M4940 1581 l0 -281 30 0 30 0 2 228 3 227 184 -225 c153 -187 189
-226 213 -228 l28 -3 0 280 0 281 -30 0 -30 0 0 -220 c0 -121 -3 -220 -7 -219
-5 0 -87 98 -183 217 -156 193 -179 217 -208 220 l-32 3 0 -280z"/>
<path d="M5640 1580 l0 -280 210 0 210 0 0 55 0 55 -145 0 -145 0 0 225 0 225
-65 0 -65 0 0 -280z"/>
<path d="M6900 1579 l0 -281 188 4 c175 3 190 5 228 26 53 31 74 68 74 130 0
56 -22 92 -73 118 -29 16 -30 17 -12 30 84 62 69 191 -28 234 -36 17 -66 20
-209 20 l-168 0 0 -281z m314 158 c12 -9 17 -23 14 -47 -3 -31 -8 -37 -43 -48
-21 -7 -66 -12 -100 -10 l-60 3 -3 58 -3 57 89 0 c56 0 95 -5 106 -13z m32
-232 c18 -19 23 -31 19 -48 -12 -40 -33 -47 -142 -47 l-103 0 0 60 0 60 100 0
c94 0 103 -2 126 -25z"/>
</g>
</svg>
