<svg width="81" height="81" viewBox="0 0 81 81" fill="none" xmlns="http://www.w3.org/2000/svg">
<path d="M80.2346 40.1431C80.2346 62.3123 62.2723 80.2861 40.1173 80.2861C17.9595 80.2861 0 62.3123 0 40.1431C0 17.971 17.9609 0 40.1173 0C62.2723 0 80.2346 17.9724 80.2346 40.1431Z" fill="#DA552F"/>
<path d="M45.4653 40.143H34.0997V28.1001H45.4653C46.2556 28.1001 47.0381 28.2559 47.7682 28.5585C48.4983 28.8611 49.1616 29.3046 49.7204 29.8638C50.2792 30.4229 50.7225 31.0867 51.0249 31.8173C51.3273 32.5478 51.4829 33.3308 51.4829 34.1216C51.4829 34.9123 51.3273 35.6953 51.0249 36.4259C50.7225 37.1565 50.2792 37.8203 49.7204 38.3794C49.1616 38.9385 48.4983 39.3821 47.7682 39.6847C47.0381 39.9873 46.2556 40.143 45.4653 40.143V40.143ZM45.4653 20.0715H26.0762V60.2146H34.0997V48.1717H45.4653C53.2199 48.1717 59.5064 41.8811 59.5064 34.1216C59.5064 26.3621 53.2199 20.0715 45.4653 20.0715" fill="white"/>
</svg>
